<?xml version="1.0" encoding="UTF-8" standalone="no"?>
<!-- Created with Inkscape (http://www.inkscape.org/) -->

<svg
   version="1.1"
   id="svg885"
   width="23.080114cm"
   height="5.0894828cm"
   viewBox="0 0 872.31929 192.3584"
   sodipodi:docname="tomocupy-logo-wide-mono.svg"
   inkscape:version="1.3.2 (091e20e, 2023-11-25)"
   xml:space="preserve"
   xmlns:inkscape="http://www.inkscape.org/namespaces/inkscape"
   xmlns:sodipodi="http://sodipodi.sourceforge.net/DTD/sodipodi-0.dtd"
   xmlns="http://www.w3.org/2000/svg"
   xmlns:svg="http://www.w3.org/2000/svg"
   xmlns:rdf="http://www.w3.org/1999/02/22-rdf-syntax-ns#"
   xmlns:cc="http://creativecommons.org/ns#"
   xmlns:dc="http://purl.org/dc/elements/1.1/"><metadata
     id="metadata891"><rdf:RDF><cc:Work
         rdf:about=""><dc:format>image/svg+xml</dc:format><dc:type
           rdf:resource="http://purl.org/dc/dcmitype/StillImage" /></cc:Work></rdf:RDF></metadata><defs
     id="defs889" /><sodipodi:namedview
     pagecolor="#000000"
     bordercolor="#666666"
     borderopacity="1"
     objecttolerance="10"
     gridtolerance="10"
     guidetolerance="10"
     inkscape:pageopacity="0"
     inkscape:pageshadow="2"
     inkscape:window-width="1760"
     inkscape:window-height="1067"
     id="namedview887"
     showgrid="true"
     inkscape:zoom="0.79815392"
     inkscape:cx="536.86387"
     inkscape:cy="25.057823"
     inkscape:window-x="0"
     inkscape:window-y="25"
     inkscape:window-maximized="1"
     inkscape:current-layer="g1"
     units="cm"
     inkscape:pagecheckerboard="false"
     showguides="true"
     fit-margin-top="0"
     fit-margin-left="0"
     fit-margin-right="0"
     fit-margin-bottom="0"
     inkscape:showpageshadow="2"
     inkscape:deskcolor="#d1d1d1"
     inkscape:document-units="cm"><inkscape:grid
       type="xygrid"
       id="grid1466"
       originx="-428.27345"
       originy="-203.5931"
       spacingy="1"
       spacingx="1"
       units="cm"
       visible="true" /></sodipodi:namedview><g
     inkscape:groupmode="layer"
     id="layer3"
     inkscape:label="small circle"
     style="display:inline"
     transform="translate(-428.27345,-318.71514)" /><g
     inkscape:groupmode="layer"
     id="layer2"
     inkscape:label="right"
     style="display:inline"
     transform="translate(-428.27345,-318.71514)" /><g
     inkscape:groupmode="layer"
     id="layer7"
     inkscape:label="left"
     transform="translate(-428.27345,-318.71514)" /><g
     inkscape:groupmode="layer"
     id="layer6"
     inkscape:label="upper"
     transform="translate(-428.27345,-318.71514)"><g
       id="g5931"
       transform="matrix(0.39604886,0,0,0.39604886,399.02783,288.7477)"
       style="fill:none;fill-opacity:1;stroke:#ffffff;stroke-width:16;stroke-linecap:square;stroke-linejoin:miter;stroke-miterlimit:4;stroke-dasharray:none;stroke-opacity:1"><path
         inkscape:connector-curvature="0"
         id="path908"
         d="m 416.86719,340.66602 a 102.783,102.783 0 0 1 -78.33008,78.26953 v 133.6289 A 235,235 0 0 0 550.29688,340.66602 Z"
         style="display:inline;opacity:1;fill:#ffffff;fill-opacity:1;stroke:#ffffff;stroke-width:16;stroke-linecap:square;stroke-linejoin:miter;stroke-miterlimit:4;stroke-dasharray:none;stroke-opacity:1" /><path
         inkscape:connector-curvature="0"
         id="path5892"
         d="M 82.638672,340.66602 A 235,235 0 0 0 294.53711,552.42578 V 418.99805 a 102.783,102.783 0 0 1 -78.26953,-78.33203 z"
         style="display:inline;opacity:1;fill:none;fill-opacity:1;stroke:#ffffff;stroke-width:16;stroke-linecap:square;stroke-linejoin:miter;stroke-miterlimit:4;stroke-dasharray:none;stroke-opacity:1" /><path
         inkscape:connector-curvature="0"
         id="path5894"
         d="M 316.53711,83.666016 A 235,235 0 0 0 82.777344,296.66602 H 216.20508 a 102.783,102.783 0 0 1 100.33203,-80.78321 102.783,102.783 0 0 1 100.26758,80.78321 H 550.43555 A 235,235 0 0 0 316.53711,83.666016 Z"
         style="display:inline;opacity:1;fill:none;fill-opacity:1;stroke:#ffffff;stroke-width:16;stroke-linecap:square;stroke-linejoin:miter;stroke-miterlimit:4;stroke-dasharray:none;stroke-opacity:1" /></g></g><g
     inkscape:groupmode="layer"
     id="layer8"
     inkscape:label="Text"
     transform="translate(-428.27345,-318.71514)"><text
       xml:space="preserve"
       style="font-style:normal;font-variant:normal;font-weight:normal;font-stretch:normal;font-size:145.333px;line-height:1.25;font-family:Arial;-inkscape-font-specification:'Arial, Normal';font-variant-ligatures:normal;font-variant-caps:normal;font-variant-numeric:normal;font-feature-settings:normal;text-align:start;letter-spacing:0px;word-spacing:0px;writing-mode:lr-tb;text-anchor:start;fill:#ffffff;fill-opacity:0;stroke:none;stroke-width:0.1;stroke-miterlimit:4;stroke-dasharray:none"
       x="618.32715"
       y="436.54388"
       id="text6644"><tspan
         sodipodi:role="line"
         id="tspan6642"
         x="618.32715"
         y="436.54388"
         style="font-style:normal;font-variant:normal;font-weight:normal;font-stretch:normal;font-size:145.333px;font-family:Arial;-inkscape-font-specification:'Arial, Normal';font-variant-ligatures:normal;font-variant-caps:normal;font-variant-numeric:normal;font-feature-settings:normal;text-align:start;writing-mode:lr-tb;text-anchor:start;fill:#ffffff;fill-opacity:1;stroke-width:0.1;stroke-miterlimit:4;stroke-dasharray:none">TomocuPy</tspan></text><flowRoot
       xml:space="preserve"
       id="flowRoot6648"
       style="font-style:normal;font-weight:normal;font-size:40px;line-height:1.25;font-family:sans-serif;letter-spacing:0px;word-spacing:0px;fill:#ffffff;fill-opacity:1;stroke:none"><flowRegion
         id="flowRegion6650"
         style="fill:#ffffff"><rect
           id="rect6652"
           width="21.480017"
           height="82.528488"
           x="1320.4558"
           y="240.97578"
           style="fill:#ffffff" /></flowRegion><flowPara
         id="flowPara6654" /></flowRoot><flowRoot
       xml:space="preserve"
       id="flowRoot6656"
       style="font-style:normal;font-weight:normal;font-size:40px;line-height:1.25;font-family:sans-serif;letter-spacing:0px;word-spacing:0px;fill:#ffffff;fill-opacity:1;stroke:none"><flowRegion
         id="flowRegion6658"
         style="fill:#ffffff"><rect
           id="rect6660"
           width="676.0553"
           height="754.06165"
           x="-67.831635"
           y="-31.481268"
           style="fill:#ffffff" /></flowRegion><flowPara
         id="flowPara6662" /></flowRoot><text
       xml:space="preserve"
       style="font-style:normal;font-weight:normal;font-size:28px;line-height:1.25;font-family:sans-serif;letter-spacing:0px;word-spacing:0px;fill:#ffffff;fill-opacity:1;stroke:none"
       x="604.08252"
       y="494.00739"
       id="text3735"><tspan
         sodipodi:role="line"
         id="tspan3733"
         x="604.08252"
         y="494.00739"
         style="font-size:28px">GPU-based Tomographic reconstruction in Python</tspan></text><g
       id="g1"
       transform="translate(514.9171,-41.399063)"><path
         id="path21"
         fill="#77b900"
         d="m -16.434349,454.48164 c 0,0 5.059009,-8.45012 15.1601782,-9.32432 v -3.06569 c -11.1883282,1.01723 -20.8769692,11.74486 -20.8769692,11.74486 0,0 5.487486,17.95868 20.8769692,19.60301 v -3.25861 C -12.567702,468.57246 -16.434349,454.48164 -16.434349,454.48164 Z m 15.1601782,9.2187 v 2.98425 c -8.5354,-1.7227 -10.9046232,-11.76725 -10.9046232,-11.76725 0,0 4.0981986,-5.1396 10.9046232,-5.97308 v 3.27463 c -0.0049,0 -0.00874,-0.002 -0.013073,-0.002 -3.5723785,-0.48533 -6.3631098,3.2927 -6.3631098,3.2927 0,0 1.5641925,6.36018 6.3761499,8.19053 m 0,-27.26317 v 5.65446 c 0.32843763,-0.0285 0.65687529,-0.0527 0.98711864,-0.0654 12.71991306,-0.48534 21.00780406,11.81027 21.00780406,11.81027 0,0 -9.518924,13.10362 -19.4359719,13.10362 -0.90888617,0 -1.75976995,-0.0954 -2.5589508,-0.25577 v 3.49655 c 0.6834049,0.0982 1.3919913,0.15601 2.1313723,0.15601 9.2284714,0 15.9022564,-5.33557 22.3645074,-11.65044 1.071422,0.97142 5.45781,3.33469 6.359506,4.36923 -6.144369,5.82369 -20.4642286,10.51818 -28.58261477,10.51818 -0.78254574,0 -1.5340681,-0.0537 -2.27277093,-0.13438 v 4.91335 H 33.802568 v -41.91567 z m 0,12.50709 v -3.78668 c 0.32506322,-0.0257 0.65260212,-0.0456 0.98711864,-0.0575 9.14686386,-0.32525 15.14780906,8.89855 15.14780906,8.89855 0,0 -6.4815829,10.19088 -13.4312039,10.19088 -1.00015875,0 -1.89690353,-0.18196 -2.7039526,-0.48914 V 452.2187 c 3.5609153,0.48711 4.2775905,2.26783 6.4184079,6.308 l 4.7613741,-4.54509 c 0,0 -3.4757136,-5.16046 -9.33481012,-5.16046 -0.63686577,-2.6e-4 -1.24631953,0.0504 -1.84474308,0.12292"
         style="fill:#fefffd;fill-opacity:1;stroke-width:0.239191" /></g></g></svg>
