<?xml version="1.0" encoding="UTF-8" standalone="no"?>
<!-- Created with Inkscape (http://www.inkscape.org/) -->

<svg
   version="1.1"
   id="svg885"
   width="33.447372cm"
   height="12.406271cm"
   viewBox="0 0 1264.1526 468.89842"
   sodipodi:docname="tomocupy-logo-wide.svg"
   inkscape:version="1.3.2 (091e20e, 2023-11-25)"
   xmlns:inkscape="http://www.inkscape.org/namespaces/inkscape"
   xmlns:sodipodi="http://sodipodi.sourceforge.net/DTD/sodipodi-0.dtd"
   xmlns="http://www.w3.org/2000/svg"
   xmlns:svg="http://www.w3.org/2000/svg"
   xmlns:rdf="http://www.w3.org/1999/02/22-rdf-syntax-ns#"
   xmlns:cc="http://creativecommons.org/ns#"
   xmlns:dc="http://purl.org/dc/elements/1.1/">
  <metadata
     id="metadata891">
    <rdf:RDF>
      <cc:Work
         rdf:about="">
        <dc:format>image/svg+xml</dc:format>
        <dc:type
           rdf:resource="http://purl.org/dc/dcmitype/StillImage" />
      </cc:Work>
    </rdf:RDF>
  </metadata>
  <defs
     id="defs889">
    <rect
       x="523.03615"
       y="168.43537"
       width="8.8650195"
       height="15.513784"
       id="rect22" />
    <rect
       x="513.063"
       y="190.59792"
       width="261.51808"
       height="16.621912"
       id="rect21" />
  </defs>
  <sodipodi:namedview
     pagecolor="#ffffff"
     bordercolor="#666666"
     borderopacity="1"
     objecttolerance="10"
     gridtolerance="10"
     guidetolerance="10"
     inkscape:pageopacity="0"
     inkscape:pageshadow="2"
     inkscape:window-width="1760"
     inkscape:window-height="1067"
     id="namedview887"
     showgrid="false"
     inkscape:zoom="0.90242328"
     inkscape:cx="658.2277"
     inkscape:cy="202.78732"
     inkscape:window-x="0"
     inkscape:window-y="25"
     inkscape:window-maximized="1"
     inkscape:current-layer="layer8"
     units="cm"
     inkscape:pagecheckerboard="false"
     showguides="true"
     fit-margin-top="0"
     fit-margin-left="0"
     fit-margin-right="0"
     fit-margin-bottom="0"
     inkscape:showpageshadow="2"
     inkscape:deskcolor="#d1d1d1"
     inkscape:document-units="cm">
    <inkscape:grid
       type="xygrid"
       id="grid1466"
       originx="-111.59984"
       originy="-67.912985"
       spacingy="1"
       spacingx="1"
       units="cm"
       visible="false" />
  </sodipodi:namedview>
  <g
     inkscape:groupmode="layer"
     id="layer3"
     inkscape:label="small circle"
     style="display:inline"
     transform="translate(-111.59985,-177.85528)" />
  <g
     inkscape:groupmode="layer"
     id="layer2"
     inkscape:label="right"
     style="display:inline"
     transform="translate(-111.59985,-177.85528)" />
  <g
     inkscape:groupmode="layer"
     id="layer7"
     inkscape:label="left"
     transform="translate(-111.59985,-177.85528)" />
  <g
     inkscape:groupmode="layer"
     id="layer6"
     inkscape:label="upper"
     transform="translate(-111.59985,-177.85528)">
    <g
       id="g5931"
       transform="translate(28.961173,94.189262)"
       style="fill:#a7aaa9;fill-opacity:1"
       inkscape:label="g5931">
      <path
         inkscape:connector-curvature="0"
         id="path908"
         d="m 416.86719,340.66602 a 102.783,102.783 0 0 1 -78.33008,78.26953 v 133.6289 A 235,235 0 0 0 550.29688,340.66602 Z"
         style="display:inline;opacity:1;fill:#4f8fb8;fill-opacity:1;stroke:none;stroke-width:0.71751732;stroke-linejoin:round;stroke-miterlimit:4;stroke-dasharray:none;stroke-opacity:1" />
      <path
         inkscape:connector-curvature="0"
         id="path5892"
         d="M 82.638672,340.66602 A 235,235 0 0 0 294.53711,552.42578 V 418.99805 a 102.783,102.783 0 0 1 -78.26953,-78.33203 z"
         style="display:inline;opacity:1;fill:#a7aaa9;fill-opacity:1;stroke:none;stroke-width:0.71751732;stroke-linejoin:round;stroke-miterlimit:4;stroke-dasharray:none;stroke-opacity:1" />
      <path
         inkscape:connector-curvature="0"
         id="path5894"
         d="M 316.53711,83.666016 A 235,235 0 0 0 82.777344,296.66602 H 216.20508 a 102.783,102.783 0 0 1 100.33203,-80.78321 102.783,102.783 0 0 1 100.26758,80.78321 H 550.43555 A 235,235 0 0 0 316.53711,83.666016 Z"
         style="display:inline;opacity:1;fill:#a7aaa9;fill-opacity:1;stroke:none;stroke-width:0.71751732;stroke-linejoin:round;stroke-miterlimit:4;stroke-dasharray:none;stroke-opacity:1" />
    </g>
  </g>
  <g
     inkscape:groupmode="layer"
     id="layer8"
     inkscape:label="Text"
     transform="translate(-111.59985,-177.85528)">
    <text
       xml:space="preserve"
       style="font-style:normal;font-variant:normal;font-weight:normal;font-stretch:normal;font-size:166.667px;line-height:1.25;font-family:Arial;-inkscape-font-specification:'Arial, Normal';font-variant-ligatures:normal;font-variant-caps:normal;font-variant-numeric:normal;font-feature-settings:normal;text-align:start;letter-spacing:0px;word-spacing:0px;writing-mode:lr-tb;text-anchor:start;fill:#4f8fb8;fill-opacity:1;stroke:none;stroke-width:0.1;stroke-miterlimit:4;stroke-dasharray:none"
       x="586.32715"
       y="390.66516"
       id="text6644"
       inkscape:label="text6644"><tspan
         sodipodi:role="line"
         id="tspan6642"
         x="586.32715"
         y="390.66516"
         style="font-style:normal;font-variant:normal;font-weight:normal;font-stretch:normal;font-size:166.667px;font-family:Arial;-inkscape-font-specification:'Arial, Normal';font-variant-ligatures:normal;font-variant-caps:normal;font-variant-numeric:normal;font-feature-settings:normal;text-align:start;writing-mode:lr-tb;text-anchor:start;fill:#4f8fb8;fill-opacity:1;stroke-width:0.1;stroke-miterlimit:4;stroke-dasharray:none"><tspan
   style="font-style:normal;font-variant:normal;font-weight:normal;font-stretch:normal;font-size:166.667px;font-family:Arial;-inkscape-font-specification:'Arial, Normal';font-variant-ligatures:normal;font-variant-caps:normal;font-variant-numeric:normal;font-feature-settings:normal;text-align:start;writing-mode:lr-tb;text-anchor:start;fill:#a7aaa9;fill-opacity:1;stroke-width:0.1;stroke-miterlimit:4;stroke-dasharray:none"
   id="tspan6664">Tomo<tspan
   style="font-size:166.667px;fill:#77b900;fill-opacity:1"
   id="tspan20">cu</tspan></tspan>Py</tspan></text>
    <flowRoot
       xml:space="preserve"
       id="flowRoot6648"
       style="font-style:normal;font-weight:normal;font-size:40px;line-height:1.25;font-family:sans-serif;letter-spacing:0px;word-spacing:0px;fill:#000000;fill-opacity:1;stroke:none"><flowRegion
         id="flowRegion6650"><rect
           id="rect6652"
           width="21.480017"
           height="82.528488"
           x="1320.4558"
           y="240.97578" /></flowRegion><flowPara
         id="flowPara6654" /></flowRoot>
    <flowRoot
       xml:space="preserve"
       id="flowRoot6656"
       style="font-style:normal;font-weight:normal;font-size:40px;line-height:1.25;font-family:sans-serif;letter-spacing:0px;word-spacing:0px;fill:#000000;fill-opacity:1;stroke:none"><flowRegion
         id="flowRegion6658"><rect
           id="rect6660"
           width="676.0553"
           height="754.06165"
           x="-67.831635"
           y="-31.481268" /></flowRegion><flowPara
         id="flowPara6662" /></flowRoot>
    <text
       xml:space="preserve"
       style="font-style:normal;font-variant:normal;font-weight:normal;font-stretch:normal;font-size:66.6667px;line-height:1.25;font-family:Arial;-inkscape-font-specification:'Arial, Normal';font-variant-ligatures:normal;font-variant-caps:normal;font-variant-numeric:normal;font-feature-settings:normal;text-align:start;letter-spacing:0px;word-spacing:0px;writing-mode:lr-tb;text-anchor:start;opacity:0.94;fill:#a7aaa9;fill-opacity:1;stroke:none"
       x="600.74994"
       y="482.39288"
       id="text96"><tspan
         sodipodi:role="line"
         id="tspan94"
         x="600.74994"
         y="482.39288">GPU-based Tomographic </tspan><tspan
         sodipodi:role="line"
         x="600.74994"
         y="565.72626"
         id="tspan98">reconstruction in Python</tspan></text>
    <g
       id="g1"
       transform="matrix(0.64828279,0,0,0.62322094,221.43417,341.83896)"
       inkscape:label="g1">
      <path
         id="path21"
         fill="#77b900"
         d="m 82.211,102.414 c 0,0 22.504,-33.203 67.437,-36.638 V 53.73 c -49.769,3.997 -92.867,46.149 -92.867,46.149 0,0 24.41,70.565 92.867,77.026 V 164.101 C 99.411,157.781 82.211,102.414 82.211,102.414 Z m 67.437,36.223 v 11.726 c -37.968,-6.769 -48.507,-46.237 -48.507,-46.237 0,0 18.23,-20.195 48.507,-23.47 v 12.867 c -0.023,0 -0.039,-0.007 -0.058,-0.007 -15.891,-1.907 -28.305,12.938 -28.305,12.938 0,0 6.958,24.991 28.363,32.183 m 0,-107.125 V 53.73 c 1.461,-0.112 2.922,-0.207 4.391,-0.257 56.582,-1.907 93.449,46.406 93.449,46.406 0,0 -42.343,51.488 -86.457,51.488 -4.043,0 -7.828,-0.375 -11.383,-1.005 v 13.739 c 3.04,0.386 6.192,0.613 9.481,0.613 41.051,0 70.738,-20.965 99.484,-45.778 4.766,3.817 24.278,13.103 28.289,17.168 -27.332,22.883 -91.031,41.329 -127.144,41.329 -3.481,0 -6.824,-0.211 -10.11,-0.528 v 19.306 H 305.68 V 31.512 Z m 0,49.144 V 65.777 c 1.446,-0.101 2.903,-0.179 4.391,-0.226 40.688,-1.278 67.382,34.965 67.382,34.965 0,0 -28.832,40.043 -59.746,40.043 -4.449,0 -8.438,-0.715 -12.028,-1.922 V 93.523 c 15.84,1.914 19.028,8.911 28.551,24.786 l 21.18,-17.859 c 0,0 -15.461,-20.277 -41.524,-20.277 -2.833,-0.001 -5.544,0.198 -8.206,0.483" />
    </g>
    <text
       xml:space="preserve"
       transform="translate(111.59985,177.85528)"
       id="text21"
       style="fill:#7cd5b5;fill-opacity:1;white-space:pre;shape-inside:url(#rect21)" />
    <text
       xml:space="preserve"
       transform="translate(111.59985,177.85528)"
       id="text22"
       style="fill:#7cd5b5;fill-opacity:1;white-space:pre;shape-inside:url(#rect22)" />
  </g>
</svg>
